<svg xmlns:xlink="http://www.w3.org/1999/xlink" xmlns="http://www.w3.org/2000/svg" version="1.1" viewBox="0 0 32 33" height="33px" width="32px">
    <title>soical-facebook-filled-circle-gravy-48x48</title>
    <g fill-rule="evenodd" fill="none" stroke-width="1" stroke="none" id="Icons">
        <g transform="translate(-686.000000, -804.000000)" id="functional-icons-48x48">
            <g transform="translate(678.000000, 771.500000)" id="social-snapchat">
                <g transform="translate(0.000000, 25.000000)" id="soical-facebook-filled-circle-gravy-48x48">
                    <circle r="15" cy="24" cx="23.7780739" fill="#243746" id="Oval"></circle>
                    <circle r="15" cy="24" cx="23.7780739" stroke-linejoin="round" stroke-linecap="round" stroke-width="1.5" stroke="#243746" id="Oval-outline"></circle>
                    <path fill="#FFFFFF" id="Path" d="M29.0285114,13.647875 L29.0285114,16.986875 C28.3788793,16.9838006 27.9200696,16.9838006 27.6520822,16.986875 C27.2244978,16.9917803 26.8568818,16.9786368 26.5571382,17.0275255 C26.1356716,17.0962674 25.8444374,17.2527891 25.6747889,17.4499702 C25.5387586,17.608077 25.4185609,17.8639506 25.364109,18.2160314 C25.3092205,18.5709353 25.320597,19.0235808 25.3137048,19.5687152 C25.3093293,19.914797 25.3093293,20.5171836 25.3137048,21.375875 L28.7091364,21.375875 L28.2445114,25.108625 L25.3137048,25.108625 L25.3137048,34.5 L21.5778864,34.5 L21.5778864,25.108625 L18.5276364,25.108625 L18.5276364,21.375875 L21.5778864,21.375 C21.5512495,19.183136 21.5834198,17.7951992 21.6743971,17.2111897 C21.8108631,16.3351755 22.392511,15.2069523 22.858976,14.7783508 C23.3063482,14.3672924 23.8499581,13.9592438 24.726606,13.7000427 C25.5550818,13.4550849 26.9890503,13.4376956 29.0285114,13.647875 Z"></path>
                </g>
            </g>
        </g>
    </g>
</svg>