<svg xmlns:xlink="http://www.w3.org/1999/xlink" xmlns="http://www.w3.org/2000/svg" version="1.1" viewBox="0 0 125 16" height="16px" width="125px">
    <title>homepage-chatelaine-logo-124x15</title>
    <defs>
        <polygon points="0 15.369 124.14 15.369 124.14 4.22052801e-16 0 4.22052801e-16" id="path-1"></polygon>
        <polygon points="0 15.369 124.14 15.369 124.14 4.22052801e-16 0 4.22052801e-16" id="path-3"></polygon>
        <polygon points="0 15.369 124.14 15.369 124.14 4.22052801e-16 0 4.22052801e-16" id="path-5"></polygon>
        <polygon points="0 15.369 124.14 15.369 124.14 4.22052801e-16 0 4.22052801e-16" id="path-7"></polygon>
        <polygon points="0 15.369 124.14 15.369 124.14 4.22052801e-16 0 4.22052801e-16" id="path-9"></polygon>
    </defs>
    <g fill-rule="evenodd" fill="none" stroke-width="1" stroke="none" id="Exports">
        <g transform="translate(0.000000, 0.000000)" id="homepage-chatelaine-logo-124x15">
            <path fill-rule="nonzero" fill="#233745" id="Fill-1" d="M84.1321,0.4046 L84.0981,0.3316 C84.0291,0.1836 83.9321,0.1006 83.8291,0.1006 L83.8161,0.1006 C83.7411,0.1006 83.6451,0.1236 83.5481,0.3166 L77.1771,15.1196 L77.1421,15.2026 L80.7521,15.2026 L81.4171,13.4216 L85.9771,13.4216 L86.6781,15.2026 L90.4851,15.2026 L84.1321,0.4046 Z M84.9601,10.8976 L82.3791,10.8976 L83.6661,7.5246 L84.9601,10.8976 Z"></path>
            <path fill-rule="nonzero" fill="#233745" id="Fill-3" d="M10.0745,9.6971 L10.0425,9.7621 C9.5915,10.6971 8.8315,11.7711 6.9655,11.7711 C5.0755,11.7711 3.7565,10.0881 3.7565,7.6771 C3.7565,5.2791 5.0275,3.6031 6.8475,3.6031 C8.5955,3.6031 9.3755,4.5941 9.8085,5.3361 L9.8455,5.3951 L12.6175,3.3011 L12.5905,3.2571 C11.2935,1.1331 9.3405,0.0531 6.7895,0.0531 C2.9825,0.0531 0.0005,3.4031 0.0005,7.6771 C0.0005,11.9641 3.0665,15.3211 6.9845,15.3211 C9.7545,15.3211 11.5755,14.2241 12.8855,11.7691 L12.9105,11.7231 L10.0745,9.6971 Z"></path>
            <polygon points="23.1644 0.2288 23.1644 5.9008 18.6644 5.9008 18.6644 0.2288 14.9864 0.2288 14.9864 15.1278 18.6644 15.1278 18.6644 9.3428 23.1644 9.3428 23.1644 15.1278 26.8414 15.1278 26.8414 0.2288" fill-rule="nonzero" fill="#233745" id="Fill-5"></polygon>
            <polygon points="41.3792 0.2288 41.3792 3.6708 44.9012 3.6708 44.9012 15.1278 48.5792 15.1278 48.5792 3.6708 52.1012 3.6708 52.1012 0.2288" fill-rule="nonzero" fill="#233745" id="Fill-7"></polygon>
            <polygon points="58.1058 11.6858 58.1058 9.2558 62.9208 9.2558 62.9208 5.9898 58.1058 5.9898 58.1058 3.6718 63.8768 3.6718 63.8768 0.2278 54.4308 0.2278 54.4308 15.1278 64.1528 15.1278 64.1528 11.6858" fill-rule="nonzero" fill="#233745" id="Fill-9"></polygon>
            <polygon points="75.2845 15.1277 66.5985 15.1277 66.5985 0.2287 70.2765 0.2287 70.2765 11.6857 75.2845 11.6857" fill-rule="nonzero" fill="#233745" id="Fill-11"></polygon>
            <g transform="translate(0.000000, 0.000000)" id="Fill-13-Clipped">
                <mask fill="white" id="mask-2">
                    <use xlink:href="#path-1"></use>
                </mask>
                <g id="path-1"></g>
                <polygon points="92.504 15.128 96.181 15.128 96.181 0.229 92.504 0.229" mask="url(#mask-2)" fill-rule="nonzero" fill="#233745" id="Fill-13"></polygon>
            </g>
            <g transform="translate(0.000000, 0.000000)" id="Fill-15-Clipped">
                <mask fill="white" id="mask-4">
                    <use xlink:href="#path-3"></use>
                </mask>
                <g id="path-1"></g>
                <path mask="url(#mask-4)" fill-rule="nonzero" fill="#233745" id="Fill-15" d="M107.9222,0.2288 L107.9222,7.5668 L99.7762,0.1058 L99.7332,0.0728 C99.5632,-0.0352 99.4782,0.0008 99.4212,0.0308 C99.3682,0.0588 99.3092,0.1208 99.2992,0.2888 L99.2922,0.3768 L99.2922,15.1278 L102.7552,15.1278 L102.7552,7.8308 L110.8722,15.2398 L110.9832,15.3268 C111.1132,15.4038 111.2162,15.3538 111.2322,15.3478 C111.3012,15.3208 111.3632,15.2508 111.3822,15.1028 L111.3842,15.0468 L111.3842,0.2288 L107.9222,0.2288 Z"></path>
            </g>
            <g transform="translate(0.000000, 0.000000)" id="Fill-16-Clipped">
                <mask fill="white" id="mask-6">
                    <use xlink:href="#path-5"></use>
                </mask>
                <g id="path-1"></g>
                <polygon points="118.0941 11.6858 118.0941 9.2558 122.9071 9.2558 122.9071 5.9898 118.0941 5.9898 118.0941 3.6718 123.8651 3.6718 123.8651 0.2278 114.4171 0.2278 114.4171 15.1278 124.1401 15.1278 124.1401 11.6858" mask="url(#mask-6)" fill-rule="nonzero" fill="#233745" id="Fill-16"></polygon>
            </g>
            <g transform="translate(0.000000, 0.000000)" id="Fill-17-Clipped">
                <mask fill="white" id="mask-8">
                    <use xlink:href="#path-7"></use>
                </mask>
                <g id="path-1"></g>
                <path mask="url(#mask-8)" fill-rule="nonzero" fill="#233745" id="Fill-17" d="M35.7522,0.3265 L35.7192,0.2535 C35.6492,0.1055 35.5532,0.0235 35.4482,0.0235 L35.4362,0.0235 C35.3622,0.0235 35.2652,0.0485 35.1692,0.2385 L33.4952,4.1255 L37.3832,4.1255 L35.7522,0.3265 Z"></path>
            </g>
            <g transform="translate(0.000000, 0.000000)" id="Fill-18-Clipped">
                <mask fill="white" id="mask-10">
                    <use xlink:href="#path-9"></use>
                </mask>
                <g id="path-1"></g>
                <path mask="url(#mask-10)" fill-rule="nonzero" fill="#233745" id="Fill-18" d="M37.6702,4.7947 L33.2082,4.7947 L28.7982,15.0447 L28.7612,15.1277 L32.3732,15.1277 L33.0392,13.3437 L37.5962,13.3437 L38.2992,15.1277 L42.1062,15.1277 L37.6702,4.7947 Z M33.9992,10.8197 L35.2872,7.4467 L36.5812,10.8197 L33.9992,10.8197 Z"></path>
            </g>
        </g>
    </g>
</svg>