<svg xmlns:xlink="http://www.w3.org/1999/xlink" xmlns="http://www.w3.org/2000/svg" version="1.1" viewBox="0 0 33 33" height="33px" width="33px">
    <title>soical-pinterest-filled-circle-gravy-48x48</title>
    <g fill-rule="evenodd" fill="none" stroke-width="1" stroke="none" id="Icons">
        <g transform="translate(-386.000000, -906.000000)" id="functional-icons-48x48">
            <g transform="translate(378.500000, 873.500000)" id="social-pinterest">
                <g transform="translate(0.000000, 25.000000)" id="soical-snapchat-filled-circle-gravy-48x48-copy">
                    <circle r="15" cy="24" cx="23.7780739" fill="#243746" id="Oval"></circle>
                    <circle r="15" cy="24" cx="23.7780739" stroke-linejoin="round" stroke-linecap="round" stroke-width="1.5" stroke="#243746" id="Oval-outline"></circle>
                    <path fill="#FFFFFF" id="Path" d="M24.5531316,13.7803407 C18.9501241,13.7811924 15.9719029,17.3708985 15.9719029,21.2850834 C15.9719029,23.0999502 16.9862185,25.3644884 18.6103156,26.0824296 C19.0736134,26.291084 19.0122946,26.0364405 19.4108669,24.5119864 C19.442378,24.3850905 19.4261966,24.2752277 19.3239986,24.1568483 C17.0023998,21.4715948 18.8709206,15.9511974 24.2218396,15.9511974 C31.965896,15.9511974 30.5189421,26.6666618 25.5691504,26.6666618 C24.2933782,26.6666618 23.3429365,25.665121 23.643569,24.4259698 C24.0080754,22.9500597 24.7217584,21.3634352 24.7217584,20.2997239 C24.7217584,17.6187287 20.7275183,18.0164494 20.7275183,21.5686829 C20.7275183,22.6664602 21.1158709,23.407396 21.1158709,23.407396 C21.1158709,23.407396 19.8307305,28.5990563 19.5922685,29.5690861 C19.1885862,31.2110679 19.6467741,33.8690686 19.6868016,34.0981625 C19.7114995,34.2242067 19.8528735,34.2642343 19.9320769,34.160333 C20.0589728,33.9942612 21.612383,31.778267 22.0475763,30.1763127 C22.2059833,29.5929323 22.8557925,27.2253444 22.8557925,27.2253444 C23.2841726,27.9986429 24.5190656,28.6458971 25.8348653,28.6458971 C29.7490502,28.6458971 32.5782326,25.2052298 32.5782326,20.9359067 C32.5646062,16.8428753 29.0617684,13.7803407 24.5531316,13.7803407 Z"></path>
                </g>
            </g>
        </g>
    </g>
</svg>