<svg xmlns:xlink="http://www.w3.org/1999/xlink" xmlns="http://www.w3.org/2000/svg" version="1.1" viewBox="0 0 64 64" height="64px" width="64px">
    <title>15-year-warranty-info-rubine-64x64 copy</title>
    <g fill-rule="evenodd" fill="none" stroke-width="1" stroke="none" id="15-year-warranty-info-rubine-64x64-copy">
        <g transform="translate(13.503209, 10.604183)" id="10-year-warranty-icon">
            <path fill="#C40058" fill-opacity="0.25" id="Path" d="M10.4319447,33.395817 L7.57585269,40.5469958 C7.37101009,41.0598876 7.62073327,41.6417262 8.13362503,41.8465688 C8.27419734,41.9027116 8.42568081,41.9262096 8.57665559,41.9152914 L11.313134,41.7173931 L11.313134,41.7173931 L15.9204908,44.2853566 C16.4029043,44.5542353 17.0119468,44.3811312 17.2808255,43.8987177 C17.3430513,43.7870742 17.3832977,43.6645367 17.3993855,43.5377396 L18.5267913,34.652052 L18.5267913,34.652052 L14.5022514,34.652052"></path>
            <polyline points="9.43153405 32.1274088 6.4967913 40.9067125 12.0004681 40.2151738 16.0181574 42.8909869 18.5267913 34.8653133" stroke-linejoin="round" stroke-linecap="round" stroke-width="1.5" stroke="#C40058" id="Path"></polyline>
            <path transform="translate(26.026656, 37.569830) scale(-1, 1) translate(-26.026656, -37.569830)" fill="#C40058" fill-opacity="0.25" id="Path" d="M23.3463623,31.395817 L20.3709924,39.8880199 C20.1883755,40.4092391 20.4628669,40.9798111 20.9840862,41.162428 C21.1269768,41.2124919 21.2793703,41.2294554 21.4297724,41.2120392 L25.678867,40.7200039 L25.678867,40.7200039 L28.7129463,42.8967795 C29.161688,43.2187257 29.786454,43.1159375 30.1084001,42.6671958 C30.1795791,42.5679836 30.2319861,42.4565743 30.2630276,42.3384814 L32.2105987,34.9292227 L32.2105987,34.9292227 L26.8295929,34.652052"></path>
            <polyline points="21.4315341 32.1274088 18.4967913 40.9067125 24.0004681 40.2151738 28.0181574 42.8909869 30.5267913 34.8653133" transform="translate(24.511791, 37.509198) scale(-1, 1) translate(-24.511791, -37.509198)" stroke-linejoin="round" stroke-linecap="round" stroke-width="1.5" stroke="#C40058" id="Path"></polyline>
            <path stroke-linejoin="round" stroke-linecap="round" stroke-width="1.5" stroke="#C40058" id="Fill-5-path" d="M13.8229113,35.0035567 C13.4735235,35.0035567 13.1241356,34.9574307 12.7762253,34.8460222 C11.5207226,34.4440918 10.7228858,33.3424944 10.0189741,32.3705498 C9.5701732,31.7510052 9.14627841,31.165799 8.67334545,30.826371 C8.19007016,30.4796592 7.48735458,30.2591316 6.74326964,30.0255625 C5.59681882,29.6657397 4.29734373,29.2579128 3.53130773,28.2199971 C2.77272947,27.1923483 2.77835795,25.9118454 2.78370501,24.6734501 C2.7870821,23.8973373 2.79024812,23.1642339 2.60190514,22.5922773 C2.42650766,22.059723 1.99937646,21.49068 1.54733924,20.8882699 C0.822039358,19.9219442 0,18.8265901 0,17.5017597 C0,16.1769986 0.822039358,15.0816446 1.54733924,14.1153189 C1.99937646,13.5128395 2.42650766,12.9438658 2.60190514,12.4113114 C2.79024812,11.8392855 2.7870821,11.1062515 2.78370501,10.3302081 C2.7782876,9.09181276 2.77272947,7.8112405 3.53130773,6.78359164 C4.29734373,5.74560664 5.59681882,5.33777974 6.74334,4.97795696 C7.48735458,4.74445717 8.19014054,4.52386021 8.67334545,4.17714838 C9.14627841,3.83778978 9.5701732,3.25258351 10.0189741,2.63303903 C10.7228858,1.66109438 11.5207226,0.559427609 12.7761549,0.157566544 C13.9813529,-0.228270025 15.2030143,0.168873872 16.3845728,0.552976189 C17.1440657,0.799864424 17.861345,1.03301737 18.4913829,1.03301737 C19.1214911,1.03301737 19.8387704,0.799864424 20.5982633,0.552976189 C21.7798217,0.168943242 23.0017645,-0.228339396 24.2066108,0.157566544 C25.462043,0.559427609 26.25988,1.66109438 26.9638619,2.63303903 C27.4125924,3.25258351 27.8365576,3.83778978 28.3094906,4.17721775 C28.7926955,4.52386021 29.4954815,4.74445717 30.239496,4.97795696 C31.3860172,5.33784911 32.6854923,5.74567601 33.4515283,6.78359164 C34.2101065,7.8112405 34.2044781,9.09181276 34.199131,10.3302081 C34.1957539,11.1062515 34.1925879,11.8392855 34.3809309,12.4113114 C34.5563283,12.9439351 34.9834595,13.5129088 35.4354968,14.1153189 C36.1607263,15.0817139 36.9827656,16.1769986 36.9827656,17.5017597 C36.9827656,18.8265901 36.1607263,19.9218054 35.4354968,20.8882005 C34.9834595,21.4905412 34.5563283,22.0595842 34.3809309,22.5922773 C34.1925879,23.1642339 34.1957539,23.8973373 34.199131,24.6733807 C34.2044781,25.911776 34.2101065,27.1923483 33.4514579,28.2199971 C32.6854923,29.2579128 31.3860172,29.6657397 30.2395664,30.0255625 C29.4954815,30.2591316 28.7926955,30.4796592 28.3094906,30.826371 C27.8365576,31.165799 27.4125924,31.7510052 26.9638619,32.3705498 C26.25988,33.3424944 25.462043,34.4440918 24.2066108,34.8460222 C23.0016941,35.2318588 21.7798217,34.8346456 20.5982633,34.4505433 C19.8387704,34.203655 19.1214911,33.9705021 18.4913829,33.9705021 C17.861345,33.9705021 17.1440657,34.203655 16.3845728,34.4505433 C15.5442409,34.7237228 14.6834353,35.0035567 13.8229113,35.0035567"></path>
        </g>
        <circle r="31.6905621" cy="32" cx="32" stroke-linejoin="round" stroke-linecap="round" stroke-width="1.5" stroke="#C40058" id="Oval"></circle>
        <path fill="#C40058" id="10" d="M28.7150899,31.61 L28.7150899,19.1212396 L27.0675498,19.1212396 L23.2639697,20.9925196 L23.2639697,23.5350197 L26.1725898,22.0908797 L26.1725898,31.61 L28.7150899,31.61 Z M35.3745688,31.499156 C37.6787162,31.499156 39.2639697,29.8645406 39.2639697,27.4606944 C39.2639697,25.1145406 37.8077485,23.499156 35.6142001,23.499156 C34.8215734,23.499156 34.1395457,23.7876175 33.7893153,24.0376175 L33.7893153,21.6337713 L38.5082093,21.6337713 L38.5082093,19.499156 L31.8722646,19.499156 L31.8722646,26.326079 L33.7155826,26.326079 C34.0842462,25.8837713 34.6188084,25.5376175 35.3377024,25.5376175 C36.4068268,25.5376175 37.0519881,26.3453098 37.0519881,27.4606944 C37.0519881,28.5953098 36.4068268,29.4030021 35.3745688,29.4030021 C34.2870112,29.4030021 33.6787162,28.6914636 33.549684,27.6530021 L31.2639697,27.6530021 C31.4298683,29.9799252 32.9966886,31.499156 35.3745688,31.499156 Z"></path>
        <path fill="#C40058" id="YEARS" d="M24.8491497,37.2 L24.8491497,35.8998599 L26.0934898,33.7738798 L25.3401897,33.7738798 L24.5143497,35.2246799 L23.6829297,33.7738798 L22.9073096,33.7738798 L24.1404897,35.8998599 L24.1404897,37.2 L24.8491497,37.2 Z M29.3109499,37.2 L29.3109499,36.5694599 L27.6871698,36.5694599 L27.6871698,35.7547799 L29.1602899,35.7547799 L29.1602899,35.1465599 L27.6871698,35.1465599 L27.6871698,34.3988398 L29.3109499,34.3988398 L29.3109499,33.7738798 L26.9840898,33.7738798 L26.9840898,37.2 L29.3109499,37.2 Z M30.83209,37.2 L31.13341,36.3741599 L32.41681,36.3741599 L32.72371,37.2 L33.4491101,37.2 L32.13781,33.7738798 L31.42915,33.7738798 L30.1178499,37.2 L30.83209,37.2 Z M32.19361,35.7715199 L31.35661,35.7715199 L31.77511,34.6331999 L32.19361,35.7715199 Z M35.0706901,37.2 L35.0706901,35.9221799 L35.4445502,35.9221799 L36.2927102,37.2 L37.0962302,37.2 L36.1922702,35.8719599 C36.6721502,35.7547799 36.9734702,35.4088199 36.9734702,34.8619799 C36.9734702,34.1588998 36.4935902,33.7738798 35.7737702,33.7738798 L34.3620301,33.7738798 L34.3620301,37.2 L35.0706901,37.2 Z M35.7291302,35.3362799 L35.0706901,35.3362799 L35.0706901,34.3820998 L35.7291302,34.3820998 C36.0862502,34.3820998 36.2703902,34.5718198 36.2703902,34.8619799 C36.2703902,35.1465599 36.0862502,35.3362799 35.7291302,35.3362799 Z M39.2144303,37.2558 C39.9398303,37.2558 40.4866704,36.85404 40.4866704,36.1900199 C40.4866704,35.6710799 40.1462904,35.3530199 39.5882903,35.2246799 L38.9633303,35.0795999 C38.7066503,35.0182199 38.5783103,34.9010399 38.5783103,34.7057399 C38.5783103,34.4602198 38.7959303,34.3039798 39.1195703,34.3039798 C39.4766903,34.3039798 39.6719903,34.4825398 39.7501103,34.7113199 L40.4587704,34.7113199 C40.3471704,34.1309998 39.8951903,33.7180798 39.1139903,33.7180798 C38.3941703,33.7180798 37.8808102,34.1533198 37.8808102,34.7726999 C37.8808102,35.3362799 38.2602503,35.5985399 38.7512903,35.7101399 L39.3650903,35.8496399 C39.6608303,35.9165999 39.7835903,36.0281999 39.7835903,36.2346599 C39.7835903,36.5080799 39.5548103,36.6643199 39.2088503,36.6643199 C38.8740503,36.6643199 38.6229503,36.5248199 38.5280903,36.2234999 L37.7915302,36.2234999 C37.9087102,36.87636 38.4499703,37.2558 39.2144303,37.2558 Z"></path>
        <g transform="translate(55.064192, 55.064192)" id="Icon/Functional/information-circle-16x16-Copy">
            <circle r="3.93561627" cy="3.93561627" cx="3.93561627" fill="#C40058" id="Oval"></circle>
            <path fill="#FFFFFF" id="i" d="M3.93936627,2.57436627 C4.23186627,2.57436627 4.48686627,2.35686627 4.48686627,2.04186627 C4.48686627,1.73436627 4.23186627,1.50936627 3.93936627,1.50936627 C3.63936627,1.50936627 3.38436627,1.73436627 3.38436627,2.04186627 C3.38436627,2.35686627 3.63936627,2.57436627 3.93936627,2.57436627 Z M4.40436627,6.36186627 L4.40436627,3.00936627 L3.47436627,3.00936627 L3.47436627,6.36186627 L4.40436627,6.36186627 Z"></path>
        </g>
    </g>
</svg>