<svg xmlns:xlink="http://www.w3.org/1999/xlink" xmlns="http://www.w3.org/2000/svg" version="1.1" viewBox="0 0 32 33" height="33px" width="32px">
    <title>soical-twitter-filled-circle-gravy-48x48</title>
    <g fill-rule="evenodd" fill="none" stroke-width="1" stroke="none" id="Icons">
        <g transform="translate(-87.000000, -1008.000000)" id="functional-icons-48x48">
            <g transform="translate(79.000000, 975.500000)" id="social-instagram">
                <g transform="translate(0.000000, 25.000000)" id="soical-twitter-filled-circle-gravy-48x48">
                    <circle r="15" cy="24" cx="23.7780739" fill="#243746" id="Oval"></circle>
                    <circle r="15" cy="24" cx="23.7780739" stroke-linejoin="round" stroke-linecap="round" stroke-width="1.5" stroke="#243746" id="Oval-outline"></circle>
                    <path fill="#FFFFFF" id="twitter" d="M34,17.8941538 C33.2934375,18.2153846 32.5405625,18.4283077 31.755625,18.5316923 C32.563125,18.032 33.1794375,17.2467692 33.4691875,16.3003077 C32.7163125,16.7655385 31.8850625,17.0941538 30.9991875,17.2775385 C30.2843125,16.4886154 29.2654375,16 28.1539375,16 C25.9974375,16 24.2613125,17.8141538 24.2613125,20.0381538 C24.2613125,20.3581538 24.2874375,20.6658462 24.3515625,20.9587692 C21.11325,20.7950769 18.2478125,19.1864615 16.322875,16.736 C15.9868125,17.3403077 15.7896875,18.032 15.7896875,18.7766154 C15.7896875,20.1747692 16.484375,21.4141538 17.519875,22.1316923 C16.8940625,22.1193846 16.280125,21.9310769 15.76,21.6344615 C15.76,21.6467692 15.76,21.6627692 15.76,21.6787692 C15.76,23.6406154 17.1101875,25.2701538 18.88075,25.6455385 C18.5636875,25.7353846 18.218125,25.7784615 17.8595,25.7784615 C17.610125,25.7784615 17.358375,25.7636923 17.1220625,25.7095385 C17.62675,27.3083077 19.058875,28.4836923 20.76175,28.5218462 C19.4365,29.5963077 17.7538125,30.2436923 15.9321875,30.2436923 C15.61275,30.2436923 15.306375,30.2289231 15,30.1883077 C16.7254375,31.3415385 18.7703125,32 20.9755,32 C28.14325,32 32.062,25.8461538 32.062,20.512 C32.062,20.3335385 32.0560625,20.1612308 32.04775,19.9901538 C32.8208125,19.4215385 33.470375,18.7113846 34,17.8941538 Z"></path>
                </g>
            </g>
        </g>
    </g>
</svg>